<?xml version="1.0" encoding="utf-8"?>
<!-- Generator: Adobe Illustrator 26.0.1, SVG Export Plug-In . SVG Version: 6.00 Build 0)  -->
<svg version="1.1" id="Слой_2" xmlns="http://www.w3.org/2000/svg" xmlns:xlink="http://www.w3.org/1999/xlink" x="0px" y="0px"
	 viewBox="0 0 45 67" style="enable-background:new 0 0 45 67;" xml:space="preserve">
<style type="text/css">
	.st0{fill:#FFFFFF;}
</style>
<path class="st0" d="M38.4,5.1c-0.2-0.2-0.5-0.4-0.8-0.5c-0.3-0.1-0.6-0.2-0.9-0.2c-0.3,0-0.6,0.1-0.9,0.2c-0.3,0.1-0.5,0.3-0.8,0.5
	l-26.3,27C8.3,32.6,8,33.3,8,33.9s0.3,1.3,0.7,1.8l26.3,27c0.2,0.2,0.5,0.4,0.8,0.5c0.3,0.1,0.6,0.2,0.9,0.2c0.3,0,0.6-0.1,0.9-0.2
	c0.3-0.1,0.5-0.3,0.8-0.5c0.4-0.5,0.7-1.1,0.7-1.7c0-0.6-0.2-1.2-0.7-1.7L13.6,33.9L38.4,8.5c0.4-0.5,0.7-1.1,0.7-1.7
	C39.1,6.2,38.9,5.6,38.4,5.1L38.4,5.1z"/>
</svg>
