<?xml version="1.0" encoding="utf-8"?>
<!-- Generator: Adobe Illustrator 26.0.1, SVG Export Plug-In . SVG Version: 6.00 Build 0)  -->
<svg version="1.1" id="Слой_2_00000003825961000678311750000006411741685815457976_"
	 xmlns="http://www.w3.org/2000/svg" xmlns:xlink="http://www.w3.org/1999/xlink" x="0px" y="0px" viewBox="0 0 45 67"
	 style="enable-background:new 0 0 45 67;" xml:space="preserve">
<style type="text/css">
	.st0{fill:#FFFFFF;}
</style>
<path class="st0" d="M8.7,5.1C8.3,5.6,8,6.2,8,6.8S8.2,8,8.7,8.5l24.8,25.4L8.7,59.3C8.3,59.8,8,60.4,8,61s0.2,1.2,0.7,1.7
	c0.2,0.2,0.5,0.4,0.8,0.5s0.6,0.2,0.9,0.2c0.3,0,0.6-0.1,0.9-0.2c0.3-0.1,0.5-0.3,0.8-0.5l26.3-27c0.5-0.5,0.7-1.1,0.7-1.8
	s-0.3-1.3-0.7-1.8L12,5.1c-0.2-0.2-0.5-0.4-0.8-0.5s-0.6-0.2-0.9-0.2c-0.3,0-0.6,0.1-0.9,0.2S8.9,4.9,8.7,5.1L8.7,5.1z"/>
</svg>
