<svg width="2" height="2" viewBox="0 0 2 2" fill="none" xmlns="http://www.w3.org/2000/svg">
<g clip-path="url(#clip0_3_147)">
<path d="M0.88889 0.545367L0.92357 0.597579L0.929103 0.593913C0.946575 0.582304 0.95004 0.563742 0.940204 0.548923C0.930052 0.533648 0.913558 0.528983 0.893759 0.542126L0.88889 0.545367ZM0.864033 0.541302L0.886044 0.526691C0.913369 0.508539 0.940363 0.515811 0.955574 0.53871C0.970849 0.561716 0.965012 0.590623 0.940344 0.607006L0.917668 0.622057L0.864033 0.541302Z" fill="#062539"/>
<path d="M1.01477 0.526167C1.01058 0.517723 1.00043 0.514038 0.992111 0.518182C0.983667 0.522387 0.980745 0.532588 0.98495 0.541032C0.989155 0.549461 0.999072 0.553271 1.0075 0.549081C1.01582 0.544922 1.01898 0.534611 1.01477 0.526167ZM0.969041 0.548952C0.960518 0.531844 0.967303 0.511256 0.984411 0.502732C1.00152 0.494208 1.02206 0.501184 1.03059 0.518292C1.03911 0.5354 1.03231 0.555988 1.0152 0.564512C0.998089 0.573036 0.977565 0.566064 0.969041 0.548952Z" fill="#062539"/>
<path d="M1.01808 0.48606L1.0353 0.480243L1.06169 0.516011L1.06247 0.471055L1.07956 0.465267L1.10659 0.500831L1.1066 0.456129L1.12369 0.450356L1.12257 0.520785L1.10597 0.526398L1.07837 0.491184L1.07719 0.53614L1.06046 0.541787L1.01808 0.48606Z" fill="#062539"/>
<path d="M1.13252 0.449966L1.15026 0.446661L1.15162 0.453966C1.1548 0.447829 1.16058 0.44337 1.16802 0.441996C1.18342 0.43912 1.19453 0.447309 1.19766 0.464133L1.2051 0.503936L1.18696 0.507302L1.17997 0.469875C1.17834 0.461131 1.17335 0.456797 1.16539 0.458285C1.15861 0.459549 1.15387 0.465287 1.15592 0.476247L1.16258 0.511856L1.14469 0.515192L1.13252 0.449966Z" fill="#062539"/>
<path d="M1.20761 0.486892L1.22442 0.478767C1.22728 0.484664 1.23253 0.487177 1.23903 0.486672C1.24497 0.486197 1.24793 0.483161 1.24768 0.479985C1.24739 0.47641 1.24083 0.475871 1.23303 0.475017C1.22095 0.473848 1.20871 0.470687 1.20761 0.456531C1.2067 0.445416 1.21665 0.434634 1.23308 0.43359C1.2479 0.432418 1.25686 0.437841 1.26237 0.446729L1.24687 0.454748C1.24481 0.450509 1.24007 0.447962 1.23412 0.448437C1.22816 0.448911 1.22571 0.451632 1.22595 0.454539C1.22617 0.45745 1.23009 0.458209 1.24019 0.459397C1.25147 0.460771 1.26464 0.463727 1.26577 0.478023C1.26654 0.487685 1.25854 0.501093 1.23945 0.502342C1.22345 0.503624 1.2133 0.498167 1.20761 0.486892Z" fill="#062539"/>
<path d="M1.27322 0.432877L1.2914 0.432577L1.29251 0.498961L1.27433 0.49926L1.27322 0.432877ZM1.28177 0.404179C1.28827 0.404065 1.29286 0.408509 1.29297 0.415025C1.29308 0.421522 1.28864 0.425982 1.28214 0.426095C1.27562 0.426205 1.27118 0.421887 1.27107 0.415389C1.27096 0.408873 1.27526 0.404289 1.28177 0.404179Z" fill="#062539"/>
<path d="M1.30092 0.482319L1.33802 0.450599L1.30372 0.448307L1.30478 0.432288L1.36346 0.436193L1.36239 0.452482L1.32529 0.484076L1.36078 0.486432L1.35972 0.502467L1.29985 0.498482L1.30092 0.482319Z" fill="#062539"/>
<path d="M1.38634 0.464881L1.41799 0.470418C1.41683 0.463207 1.41182 0.458699 1.40423 0.45737C1.39665 0.456042 1.39017 0.459222 1.38634 0.464881ZM1.36691 0.469704C1.3702 0.450873 1.38802 0.438349 1.40685 0.441655C1.42687 0.445146 1.43797 0.462589 1.43467 0.481423L1.43353 0.48797L1.38304 0.479131C1.38388 0.486687 1.38894 0.492429 1.39836 0.494072C1.40556 0.495336 1.41226 0.49246 1.41623 0.486687L1.42899 0.497678C1.42159 0.506896 1.41 0.512289 1.39548 0.509742C1.37507 0.506171 1.36361 0.488539 1.36691 0.469704Z" fill="#062539"/>
<path d="M1.47597 0.458539L1.48672 0.461985L1.49147 0.447184L1.51184 0.443249L1.50406 0.467537L1.51595 0.471347L1.51095 0.486907L1.49907 0.483097L1.49262 0.503196C1.48946 0.513063 1.49025 0.514991 1.50086 0.518391L1.49567 0.534585L1.49316 0.533776C1.47305 0.527325 1.46867 0.518391 1.47526 0.497772L1.48174 0.477545L1.47099 0.474099L1.47597 0.458539Z" fill="#062539"/>
<path d="M1.55775 0.524224C1.56145 0.51556 1.5577 0.505438 1.54915 0.501788C1.54048 0.498087 1.53082 0.502467 1.52712 0.511131C1.5234 0.519799 1.52691 0.529822 1.53558 0.533522C1.54414 0.537177 1.55405 0.532892 1.55775 0.524224ZM1.51076 0.504144C1.51827 0.486558 1.53836 0.478399 1.55593 0.485913C1.57351 0.493423 1.5815 0.513583 1.57399 0.531169C1.56648 0.548736 1.54638 0.556896 1.52881 0.5494C1.51123 0.541871 1.50324 0.521727 1.51076 0.504144Z" fill="#062539"/>
<path d="M1.64682 0.573663C1.65205 0.565344 1.65021 0.554782 1.6419 0.549549C1.63336 0.544171 1.62281 0.546482 1.61736 0.555131C1.61192 0.56378 1.61434 0.574406 1.62287 0.579784C1.63119 0.585017 1.64158 0.581981 1.64682 0.573663ZM1.60224 0.545769C1.61475 0.52586 1.63524 0.525735 1.64794 0.533719C1.65524 0.538323 1.65929 0.54463 1.66051 0.550892L1.66397 0.545389L1.67938 0.555082L1.64402 0.611283L1.62862 0.601606L1.63257 0.595294C1.6261 0.597351 1.61824 0.596638 1.61092 0.592038C1.59902 0.584543 1.58978 0.565552 1.60224 0.545769Z" fill="#062539"/>
<path d="M1.72985 0.639173C1.73661 0.631488 1.73582 0.620721 1.72824 0.614065C1.72086 0.607579 1.71021 0.608827 1.70373 0.616213C1.69725 0.623583 1.69728 0.634398 1.70467 0.640896C1.71224 0.647556 1.7231 0.646858 1.72985 0.639173ZM1.68686 0.636201L1.68213 0.641594L1.66848 0.629575L1.73245 0.556789L1.74611 0.568789L1.72113 0.597222C1.72774 0.596133 1.7351 0.598011 1.74179 0.603879C1.75305 0.61378 1.75863 0.63337 1.74314 0.651017C1.7277 0.668569 1.70697 0.665203 1.69641 0.655905C1.68983 0.650118 1.68664 0.642907 1.68686 0.636201Z" fill="#062539"/>
<path d="M1.79989 0.622133C1.80438 0.626831 1.80427 0.633203 1.79958 0.637708C1.79488 0.642217 1.7886 0.641997 1.7841 0.637298C1.77959 0.632619 1.77971 0.626418 1.7844 0.621913C1.78909 0.617404 1.79539 0.617439 1.79989 0.622133ZM1.77306 0.635401L1.78566 0.648509L1.7378 0.694478L1.72519 0.68137L1.77306 0.635401Z" fill="#062539"/>
<path d="M1.80204 0.718542C1.80966 0.712345 1.81134 0.701768 1.80516 0.694144C1.79879 0.686303 1.78807 0.6851 1.78013 0.691537C1.77221 0.697973 1.77107 0.708804 1.77742 0.716645C1.78362 0.724269 1.79442 0.724728 1.80204 0.718542ZM1.76882 0.67781C1.78707 0.663009 1.80649 0.669461 1.81594 0.681115C1.82138 0.687802 1.82287 0.695317 1.82181 0.701814L1.82738 0.697309L1.83884 0.711411L1.78875 0.752083C1.77421 0.763878 1.75502 0.764243 1.74088 0.746816C1.73025 0.733723 1.72927 0.718622 1.73397 0.707966L1.75109 0.714747C1.74792 0.721787 1.74836 0.729282 1.75397 0.736189C1.76016 0.743814 1.77007 0.743814 1.77678 0.738372L1.78161 0.734451C1.77483 0.734311 1.76762 0.7311 1.76218 0.724394C1.75331 0.713468 1.75067 0.692531 1.76882 0.67781Z" fill="#062539"/>
<path d="M1.84698 0.785108C1.85531 0.779909 1.85827 0.769613 1.85307 0.761279C1.84774 0.752725 1.83725 0.750194 1.82857 0.755602C1.81991 0.76101 1.81746 0.771605 1.82278 0.780175C1.82799 0.788509 1.83865 0.790311 1.84698 0.785108ZM1.81905 0.740581C1.83899 0.728152 1.85746 0.73696 1.8654 0.749689C1.86997 0.75701 1.87051 0.764649 1.86866 0.770972L1.87475 0.767176L1.88436 0.782611L1.82961 0.816736C1.81376 0.826634 1.79465 0.824611 1.7828 0.805571C1.77388 0.791275 1.77478 0.776159 1.78075 0.766182L1.7969 0.775036C1.79287 0.781617 1.79238 0.789112 1.79709 0.796653C1.80229 0.804987 1.81211 0.80622 1.81945 0.801651L1.82473 0.798345C1.81802 0.797381 1.81126 0.793302 1.8067 0.785981C1.79925 0.774042 1.79924 0.752945 1.81905 0.740581Z" fill="#062539"/>
<path d="M1.8757 0.821316L1.88932 0.850428C1.89457 0.845335 1.89539 0.838649 1.89213 0.831673C1.88888 0.824687 1.88255 0.821206 1.8757 0.821316ZM1.8606 0.808144C1.87794 0.800049 1.89839 0.80748 1.90651 0.824797C1.91513 0.843203 1.90719 0.862303 1.88987 0.870402L1.88385 0.873214L1.86214 0.826789C1.85643 0.831802 1.85463 0.839248 1.85867 0.847897C1.86177 0.854523 1.86797 0.858368 1.87497 0.858303L1.87329 0.875081C1.86149 0.874292 1.85044 0.867886 1.84417 0.854523C1.83541 0.835772 1.84329 0.816258 1.8606 0.808144Z" fill="#062539"/>
<path d="M1.92401 0.868452L1.92997 0.8855L1.9197 0.88909C1.92732 0.889944 1.93304 0.894274 1.93603 0.902782L1.93823 0.909059L1.92156 0.914896L1.91795 0.904615C1.91475 0.895462 1.9086 0.89312 1.89693 0.8972L1.86735 0.907556L1.86136 0.890384L1.92401 0.868452Z" fill="#062539"/>
<path fill-rule="evenodd" clip-rule="evenodd" d="M1.88361 0.960539L1.97785 0.93786L1.9821 0.955544L1.88786 0.97822L1.88361 0.960539Z" fill="#062539"/>
<path d="M1.98483 0.978675C1.98604 0.985062 1.98247 0.990345 1.97608 0.991578C1.96969 0.992812 1.96455 0.989206 1.96332 0.982819C1.96209 0.976428 1.96557 0.971305 1.97195 0.970072C1.97833 0.968838 1.98359 0.972288 1.98483 0.978675ZM1.95508 0.975195L1.95853 0.993066L1.89335 1.0056L1.88992 0.987753L1.95508 0.975195Z" fill="#062539"/>
<path d="M1.96052 1.00311L1.96199 1.0143L1.9637 1.01406C1.98515 1.01125 1.99319 1.01729 1.99608 1.03927L1.99627 1.04071L1.97942 1.04294C1.97796 1.03187 1.97621 1.03076 1.96594 1.03211L1.96436 1.03233L1.96599 1.04469L1.9498 1.04683L1.94818 1.03445L1.89856 1.04098L1.89618 1.02295L1.9458 1.01642L1.94433 1.00524L1.96052 1.00311Z" fill="#062539"/>
<path d="M1.9426 1.06703L1.94408 1.09913C1.95085 1.09643 1.95419 1.09056 1.95382 1.08286C1.95348 1.07517 1.94897 1.06953 1.9426 1.06703ZM1.93367 1.0491C1.95278 1.04821 1.96886 1.0629 1.96975 1.082C1.97068 1.10229 1.95606 1.11694 1.93695 1.11781L1.93033 1.11811L1.92797 1.0669C1.92078 1.06936 1.91627 1.07555 1.91671 1.0851C1.91704 1.0924 1.9213 1.09831 1.92781 1.10095L1.91984 1.1158C1.90923 1.11058 1.90145 1.10043 1.90079 1.0857C1.89984 1.06501 1.91456 1.04997 1.93367 1.0491Z" fill="#062539"/>
<path d="M0.626541 1.59211C0.599122 1.59211 0.582283 1.57367 0.582283 1.54992V1.47386C0.582283 1.45012 0.599122 1.43167 0.626541 1.43167C0.65374 1.43167 0.668036 1.44873 0.668036 1.47179V1.49046H0.64245V1.47202C0.64245 1.46303 0.637376 1.45681 0.627 1.45681C0.616628 1.45681 0.61133 1.46303 0.61133 1.47155V1.55222C0.61133 1.56075 0.616628 1.56698 0.627 1.56698C0.637376 1.56698 0.64245 1.56075 0.64245 1.55177V1.53333H0.668036V1.552C0.668036 1.57504 0.65374 1.59211 0.626541 1.59211Z" fill="#F7901D"/>
<path d="M0.740856 1.47179C0.740856 1.46279 0.735562 1.45681 0.726104 1.45681C0.716886 1.45681 0.711588 1.46279 0.711588 1.47179V1.552C0.711588 1.56099 0.716886 1.56698 0.726104 1.56698C0.735562 1.56698 0.740856 1.56099 0.740856 1.552V1.47179ZM0.726104 1.59211C0.699364 1.59211 0.682541 1.57458 0.682541 1.55016V1.47364C0.682541 1.44943 0.699364 1.4319 0.726104 1.4319C0.753065 1.4319 0.769668 1.44943 0.769668 1.47364V1.55016C0.769668 1.57458 0.753065 1.59211 0.726104 1.59211Z" fill="#F7901D"/>
<path d="M0.87914 1.58865V1.47732L0.872908 1.51074L0.856544 1.58865H0.834882L0.819447 1.51074L0.813455 1.47732V1.58865H0.787868V1.43513H0.826358L0.842263 1.51303L0.847102 1.5414L0.85218 1.51303L0.86785 1.43513H0.906115V1.58865H0.87914Z" fill="#F7901D"/>
<path d="M1.01718 1.58865V1.47732L1.01097 1.51074L0.994602 1.58865H0.972924L0.95749 1.51074L0.951497 1.47732V1.58865H0.925911V1.43513H0.964401L0.980306 1.51303L0.985144 1.5414L0.990222 1.51303L1.00589 1.43513H1.04416V1.58865H1.01718Z" fill="#F7901D"/>
<path d="M1.10684 1.59211C1.08194 1.59211 1.06349 1.5762 1.06349 1.55316V1.43513H1.09254V1.55316C1.09254 1.56214 1.09761 1.5672 1.10684 1.5672C1.11627 1.5672 1.12135 1.56214 1.12135 1.55316V1.43513H1.14925V1.55316C1.14925 1.5762 1.13172 1.59211 1.10684 1.59211Z" fill="#F7901D"/>
<path d="M1.23543 1.58865L1.20568 1.52318L1.19487 1.49875V1.58865H1.16859V1.43513H1.19325L1.22161 1.50175L1.23174 1.52619V1.43513H1.25755V1.58865H1.23543Z" fill="#F7901D"/>
<path d="M1.30592 1.43513H1.27735V1.58865H1.30592V1.43513Z" fill="#F7901D"/>
<path d="M1.37555 1.46049V1.58864H1.34674V1.46049H1.31839V1.43514H1.40367V1.46049H1.37555Z" fill="#F7901D"/>
<path d="M1.44444 1.43513H1.41587V1.58865H1.44444V1.43513Z" fill="#F7901D"/>
<path d="M1.45988 1.58865V1.43513H1.53319V1.4598H1.48847V1.49783H1.51935V1.52041H1.48847V1.56306H1.53319V1.58865H1.45988Z" fill="#F7901D"/>
<path d="M1.58643 1.59211C1.56015 1.59211 1.5438 1.57642 1.5438 1.55246V1.54185H1.57006V1.55085C1.57006 1.56214 1.57536 1.56835 1.58573 1.56835C1.59588 1.56835 1.60095 1.56236 1.60095 1.55292C1.60095 1.5407 1.5931 1.53241 1.57791 1.5211C1.56222 1.50981 1.54517 1.4946 1.54517 1.47316C1.54517 1.45104 1.55947 1.4319 1.58711 1.4319C1.61132 1.4319 1.62746 1.44851 1.62746 1.47133V1.48123H1.60142V1.47202C1.60142 1.46257 1.59656 1.45566 1.58689 1.45566C1.5786 1.45566 1.57305 1.46095 1.57305 1.46948C1.57305 1.48238 1.58067 1.48907 1.59772 1.50151C1.61594 1.51511 1.62884 1.52895 1.62884 1.5497C1.62884 1.57436 1.61178 1.59211 1.58643 1.59211Z" fill="#F7901D"/>
<path d="M0.0271973 1.44632C0.102116 1.42466 0.177812 1.39787 0.36007 1.35951C0.361429 1.35246 0.36385 1.34272 0.366916 1.33139C0.36777 1.32754 0.369133 1.32203 0.370981 1.31514C0.134328 1.36609 0.0365408 1.40832 0.030184 1.4098C0.0130759 1.41335 0.00175139 1.45151 0.0271973 1.44632Z" fill="#F7901D"/>
<path d="M0.487026 1.29665C0.485747 1.30085 0.484465 1.30483 0.483246 1.30874C0.482457 1.31126 0.481683 1.31369 0.480969 1.31611C0.478552 1.32394 0.476195 1.33382 0.474487 1.34163C0.609637 1.315 0.730734 1.2949 0.879136 1.28431C0.94865 1.27841 0.988419 1.27724 1.05371 1.27424C1.05763 1.25733 1.0706 1.24011 1.08998 1.22069C0.981857 1.22849 0.894317 1.23597 0.778992 1.24997C0.667292 1.26178 0.586821 1.2767 0.487026 1.29665Z" fill="#F7901D"/>
<path d="M1.64912 1.20208C1.62337 1.19696 1.48096 1.19437 1.25707 1.20737C1.24931 1.22973 1.24246 1.24829 1.23569 1.26363C1.46351 1.25784 1.60207 1.26855 1.60834 1.26638C1.62701 1.26222 1.67356 1.21298 1.64912 1.20208Z" fill="#F7901D"/>
<path d="M1.1242 1.29107C1.11525 1.28309 1.12526 1.26832 1.1779 1.21293C1.15568 1.27784 1.13315 1.29906 1.1242 1.29107ZM0.815361 1.16027C0.808451 1.16101 0.803597 1.15658 0.800386 1.15254C0.793714 1.14412 0.794189 1.12953 0.798124 1.1264C0.798409 1.12616 0.798743 1.12597 0.799153 1.1258C0.804515 1.12357 0.820454 1.12711 0.850212 1.13513C0.840139 1.15232 0.822257 1.15953 0.815361 1.16027ZM0.7122 1.02692C0.740268 1.05194 0.671513 1.10342 0.662974 1.0961C0.654451 1.08878 0.698219 1.01446 0.7122 1.02692ZM1.59395 0.961344C1.622 0.986376 1.55327 1.03786 1.54474 1.03052C1.53622 1.0232 1.57997 0.9489 1.59395 0.961344ZM1.64248 1.0735C1.64017 1.07355 1.63408 1.07863 1.63317 1.07936C1.5556 1.14085 1.51672 1.09929 1.5322 1.06484C1.56399 1.06473 1.59053 1.04095 1.60804 1.02096C1.62553 1.00099 1.63124 0.976144 1.62867 0.958038C1.62724 0.947871 1.61506 0.915139 1.58715 0.91038C1.53926 0.904338 1.50015 0.962497 1.48294 1.00793C1.47616 1.02452 1.47306 1.04074 1.47297 1.05606C1.4609 1.06577 1.40787 1.12239 1.39568 1.1121C1.3823 1.10078 1.49455 0.777708 1.49798 0.766437C1.5014 0.755146 1.48919 0.746418 1.48919 0.746418L1.46573 0.731852C1.46573 0.731852 1.45598 0.725875 1.44522 0.74137C1.43126 0.777742 1.39074 0.907738 1.36296 1.00179C1.34071 1.02433 1.30133 1.05889 1.26987 1.08538C1.29107 1.0189 1.30605 0.964615 1.30807 0.957139C1.30869 0.954843 1.30897 0.953059 1.30896 0.951682L1.31008 0.948266C1.31264 0.93693 1.29964 0.929386 1.29964 0.929386L1.27486 0.917036C1.27486 0.917036 1.26459 0.911959 1.25496 0.928027L1.25315 0.933515C1.25266 0.934129 1.25216 0.935253 1.2516 0.937055C1.25056 0.940441 1.2485 0.947143 1.24591 0.955651L1.24186 0.968C1.24174 0.968554 1.24167 0.969108 1.24161 0.969628C1.23146 1.0028 1.21773 1.04757 1.21773 1.04757C1.21773 1.04757 1.15243 1.1295 1.14656 1.12561C1.14226 1.12276 1.16291 1.05088 1.17833 1.00291C1.17839 1.00282 1.17845 1.00274 1.1785 1.00265L1.19307 0.963666C1.19401 0.960251 1.19362 0.957074 1.19264 0.954274C1.19223 0.95279 1.19152 0.951412 1.19061 0.950133C1.18816 0.946209 1.18511 0.943761 1.18511 0.943761L1.16389 0.929101C1.16389 0.929101 1.15507 0.923078 1.14533 0.938334L1.13078 0.977313C1.1307 0.977552 1.13069 0.977788 1.13064 0.978012C1.12118 1.00195 1.10918 1.03573 1.10067 1.06564C1.07661 1.08883 1.02115 1.14523 1.01051 1.13623C1.00219 1.12921 1.04352 0.999135 1.07691 0.898771L1.13971 0.891959C1.1455 0.891325 1.15334 0.878611 1.15334 0.878611C1.15334 0.878611 1.17425 0.848236 1.17064 0.84074C1.16921 0.838129 1.13521 0.840156 1.09528 0.843981C1.10685 0.809776 1.11513 0.785792 1.11601 0.782896C1.11943 0.771621 1.10722 0.762892 1.10722 0.762892L1.08375 0.74833C1.08375 0.74833 1.07401 0.742338 1.06324 0.757833C1.05709 0.773867 1.0455 0.808782 1.03201 0.851002C0.997604 0.855382 0.969316 0.86 0.965551 0.862957C0.955305 0.870972 0.948253 0.900828 0.948253 0.900828C0.948253 0.900828 0.944678 0.913097 0.950466 0.912467L1.01482 0.905492C1.0085 0.925735 1.00209 0.946479 0.995897 0.966797C0.995737 0.967162 0.995612 0.967556 0.995468 0.967921C0.984891 0.994122 0.926621 1.11256 0.910951 1.12969C0.911616 1.12387 0.911711 1.1181 0.911251 1.11239C0.907327 1.07429 0.882489 1.03555 0.882834 1.01655C0.883248 0.992053 0.895676 0.994471 0.903692 0.985712C0.906602 0.982547 0.906568 0.976144 0.901065 0.97178C0.891437 0.964141 0.883547 0.955826 0.857946 0.958608C0.768682 0.968285 0.84338 1.08536 0.856872 1.11542C0.859115 1.11636 0.797574 1.09251 0.780322 1.09438C0.76291 1.09626 0.753646 1.11817 0.757631 1.13851C0.757726 1.13902 0.757836 1.13962 0.757946 1.14019C0.755304 1.14173 0.752079 1.14439 0.75143 1.14493C0.74302 1.15159 0.735065 1.15704 0.727601 1.16139C0.666056 1.19751 0.636644 1.16112 0.650466 1.1304C0.682249 1.13029 0.7088 1.10651 0.726287 1.08652C0.743794 1.06655 0.749487 1.0417 0.74694 1.0236C0.745502 1.01343 0.733293 0.980699 0.705399 0.97594C0.669566 0.971416 0.638656 1.00285 0.618143 1.03802C0.595422 1.03963 0.565995 1.04251 0.538257 1.04575C0.541642 1.035 0.547919 1.01346 0.550246 1.00603L0.550576 1.006C0.569836 0.940296 0.592022 0.888638 0.599217 0.886801C0.617593 0.882091 0.605714 0.94463 0.60913 0.945594V0.94564C0.612356 0.951541 0.621608 0.949359 0.621608 0.949359L0.639699 0.944061C0.639699 0.944061 0.645722 0.942034 0.645722 0.930904C0.6471 0.924881 0.632614 0.85641 0.629547 0.852376C0.626477 0.848346 0.61979 0.843048 0.614917 0.841655C0.610064 0.840296 0.610079 0.840346 0.586075 0.843602C0.562071 0.846873 0.548409 0.858782 0.541183 0.871921C0.534447 0.884194 0.512944 0.944615 0.490534 1.01248H0.490583C0.487593 1.02154 0.481046 1.0436 0.477695 1.05404C0.464082 1.05632 0.454766 1.05843 0.452712 1.06003C0.442481 1.06805 0.435411 1.0979 0.435411 1.0979C0.435411 1.0979 0.43184 1.11017 0.437627 1.10954L0.460902 1.10702C0.455733 1.12355 0.450545 1.14023 0.445487 1.15666C0.419775 1.18032 0.352712 1.24632 0.341737 1.23706C0.328344 1.22573 0.38549 1.08533 0.388921 1.07404C0.392337 1.06277 0.380117 1.05404 0.380117 1.05404L0.356663 1.03947C0.356663 1.03947 0.34691 1.03348 0.336155 1.04898C0.314728 1.10483 0.28579 1.19871 0.281396 1.227C0.279434 1.24112 0.284576 1.25676 0.303771 1.26901C0.322982 1.28127 0.331046 1.28494 0.336189 1.28568C0.341327 1.28641 0.350481 1.28449 0.355654 1.28223C0.359449 1.28059 0.400686 1.24847 0.42338 1.22921C0.40932 1.27608 0.398553 1.31372 0.395422 1.32833C0.391673 1.34222 0.388971 1.35361 0.387847 1.36079C0.384936 1.38875 0.415661 1.41983 0.432659 1.41593C0.449487 1.40873 0.43965 1.37888 0.443065 1.35839C0.443065 1.35839 0.447714 1.33482 0.452428 1.31925C0.453187 1.3168 0.453931 1.31433 0.45475 1.31183C0.464667 1.28043 0.477475 1.23862 0.484701 1.21488C0.49773 1.17341 0.508705 1.13998 0.521084 1.1005L0.595058 1.09248C0.592796 1.10154 0.591452 1.11043 0.591217 1.11903C0.590948 1.12742 0.591612 1.13557 0.593096 1.14332C0.600291 1.18119 0.626891 1.21049 0.661931 1.22017C0.687153 1.22804 0.721718 1.21329 0.746735 1.19828C0.755938 1.19278 0.763703 1.18729 0.769377 1.18283C0.771008 1.18649 0.772792 1.18959 0.774739 1.19159C0.786724 1.20405 0.807202 1.20937 0.830906 1.20679C0.863149 1.20216 0.884067 1.18781 0.896435 1.17036C0.909748 1.16318 0.922462 1.15171 0.933752 1.13725C0.939111 1.13038 0.947984 1.11463 0.95801 1.09502C0.953692 1.11058 0.95086 1.12167 0.950166 1.12617C0.948219 1.1403 0.953342 1.15594 0.972557 1.16821C0.991752 1.18046 0.999817 1.18413 1.00496 1.18486C1.01011 1.18558 1.01925 1.18367 1.02442 1.18143C1.02817 1.17978 1.06859 1.14833 1.09144 1.12901C1.09166 1.12956 1.0919 1.13008 1.09218 1.13054C1.10545 1.15159 1.12025 1.16906 1.12807 1.17425C1.1359 1.17943 1.15178 1.17635 1.1593 1.17213C1.16683 1.16789 1.20616 1.12004 1.20616 1.12004C1.20616 1.12004 1.20494 1.12853 1.20039 1.14428C1.12048 1.21449 1.06554 1.25473 1.08489 1.30013C1.1026 1.34211 1.1467 1.32986 1.16748 1.31949C1.19999 1.30069 1.2143 1.25214 1.24741 1.15483C1.28742 1.11648 1.32482 1.08261 1.3448 1.06473C1.3396 1.08347 1.33614 1.09691 1.33533 1.10205C1.33339 1.11617 1.33853 1.13181 1.35773 1.14408C1.37692 1.15632 1.385 1.16 1.39014 1.16073C1.39528 1.16145 1.40444 1.15954 1.4096 1.15728C1.41365 1.15551 1.46071 1.11879 1.48188 1.10034C1.48446 1.10619 1.4875 1.11174 1.49104 1.11688C1.50365 1.13519 1.52205 1.14863 1.54368 1.15461C1.58731 1.16821 1.65896 1.1141 1.66065 1.1082C1.66236 1.10228 1.64939 1.07328 1.64248 1.0735Z" fill="#062539"/>
<path d="M0.36543 1.01845L0.388895 1.03301C0.388895 1.03301 0.398637 1.03901 0.409403 1.02351L0.425487 0.984023C0.428918 0.972748 0.416694 0.964019 0.416694 0.964019L0.393244 0.949457C0.393244 0.949457 0.383487 0.943465 0.372717 0.95896L0.356637 0.998444C0.353206 1.00972 0.36543 1.01845 0.36543 1.01845Z" fill="#062539"/>
<path d="M0.247739 1.24203C0.244529 1.24206 0.197959 1.24879 0.118912 1.27269C0.120825 1.16093 0.215086 0.913222 0.246711 0.872061H0.246741C0.251029 0.857958 0.235705 0.846937 0.235705 0.846937L0.210343 0.831393C0.210343 0.831393 0.198134 0.823818 0.184631 0.843158L0.184726 0.843203C0.139959 0.902106 0.0438189 1.27045 0.0416026 1.29235C0.0140883 1.30268 0.010168 1.30505 0.00328757 1.31151C-0.00660996 1.32243 0.00632363 1.36242 0.0355798 1.35941C0.113174 1.34392 0.165196 1.32156 0.234472 1.30638C0.234567 1.30638 0.234771 1.30633 0.234771 1.30633C0.245432 1.30491 0.2509 1.29066 0.2509 1.29066L0.260498 1.26066C0.260498 1.26066 0.267899 1.23996 0.247739 1.24203Z" fill="#062539"/>
</g>
<defs>
<clipPath id="clip0_3_147">
<rect width="2" height="2" fill="white"/>
</clipPath>
</defs>
</svg>
